<?xml version="1.0" standalone="no"?>
<!DOCTYPE svg PUBLIC "-//W3C//DTD SVG 20010904//EN"
 "http://www.w3.org/TR/2001/REC-SVG-20010904/DTD/svg10.dtd">
<svg version="1.0" xmlns="http://www.w3.org/2000/svg"
 width="512.000000pt" height="480.000000pt" viewBox="0 0 512.000000 480.000000"
 preserveAspectRatio="xMidYMid meet">

<g transform="translate(0.000000,480.000000) scale(0.100000,-0.100000)"
fill="#000000" stroke="none">
<path d="M1600 4720 l0 -80 -240 0 -240 0 0 -80 0 -80 -160 0 -160 0 0 -80 0
-80 -80 0 -80 0 0 -80 0 -80 -80 0 -80 0 0 -80 0 -80 -80 0 -80 0 0 -80 0 -80
-80 0 -80 0 0 -160 0 -160 -80 0 -80 0 0 -560 0 -560 80 0 80 0 0 -160 0 -160
80 0 80 0 0 -160 0 -160 -80 0 -80 0 0 -320 0 -320 80 0 80 0 0 -160 0 -160
80 0 80 0 0 -80 0 -80 80 0 80 0 0 -80 0 -80 80 0 80 0 0 -80 0 -80 160 0 160
0 0 -80 0 -80 240 0 240 0 0 -80 0 -80 960 0 960 0 0 80 0 80 240 0 240 0 0
80 0 80 160 0 160 0 0 80 0 80 80 0 80 0 0 80 0 80 80 0 80 0 0 80 0 80 80 0
80 0 0 160 0 160 80 0 80 0 0 320 0 320 -80 0 -80 0 0 160 0 160 80 0 80 0 0
160 0 160 80 0 80 0 0 560 0 560 -80 0 -80 0 0 160 0 160 -80 0 -80 0 0 80 0
80 -80 0 -80 0 0 80 0 80 -80 0 -80 0 0 80 0 80 -80 0 -80 0 0 80 0 80 -160 0
-160 0 0 80 0 80 -240 0 -240 0 0 80 0 80 -960 0 -960 0 0 -80z m1920 -160 l0
-80 240 0 240 0 0 -80 0 -80 160 0 160 0 0 -80 0 -80 80 0 80 0 0 -80 0 -80
80 0 80 0 0 -80 0 -80 80 0 80 0 0 -160 0 -160 80 0 80 0 0 -560 0 -560 -80 0
-80 0 0 -160 0 -160 -80 0 -80 0 0 -160 0 -160 80 0 80 0 0 -320 0 -320 -80 0
-80 0 0 -160 0 -160 -80 0 -80 0 0 -80 0 -80 -80 0 -80 0 0 -80 0 -80 -160 0
-160 0 0 -80 0 -80 -240 0 -240 0 0 -80 0 -80 -960 0 -960 0 0 80 0 80 -240 0
-240 0 0 80 0 80 -160 0 -160 0 0 80 0 80 -80 0 -80 0 0 80 0 80 -80 0 -80 0
0 160 0 160 -80 0 -80 0 0 320 0 320 80 0 80 0 0 160 0 160 -80 0 -80 0 0 160
0 160 -80 0 -80 0 0 560 0 560 80 0 80 0 0 160 0 160 80 0 80 0 0 80 0 80 80
0 80 0 0 80 0 80 80 0 80 0 0 80 0 80 160 0 160 0 0 80 0 80 240 0 240 0 0 80
0 80 960 0 960 0 0 -80z"/>
<path d="M960 3120 l0 -80 -160 0 -160 0 0 -80 0 -80 -80 0 -80 0 0 -240 0
-240 80 0 80 0 0 -80 0 -80 160 0 160 0 0 -80 0 -80 320 0 320 0 0 -80 0 -80
-160 0 -160 0 0 -80 0 -80 160 0 160 0 0 80 0 80 80 0 80 0 0 80 0 80 80 0 80
0 0 160 0 160 80 0 80 0 0 320 0 320 -80 0 -80 0 0 80 0 80 -480 0 -480 0 0
-80z m640 -560 l0 -160 -160 0 -160 0 0 160 0 160 160 0 160 0 0 -160z"/>
<path d="M3200 3120 l0 -80 -80 0 -80 0 0 -320 0 -320 80 0 80 0 0 -160 0
-160 80 0 80 0 0 -80 0 -80 80 0 80 0 0 -80 0 -80 160 0 160 0 0 80 0 80 -160
0 -160 0 0 80 0 80 320 0 320 0 0 80 0 80 160 0 160 0 0 80 0 80 80 0 80 0 0
240 0 240 -80 0 -80 0 0 80 0 80 -160 0 -160 0 0 80 0 80 -480 0 -480 0 0 -80z
m640 -560 l0 -160 -160 0 -160 0 0 160 0 160 160 0 160 0 0 -160z"/>
<path d="M2400 2240 l0 -160 -80 0 -80 0 0 -240 0 -240 320 0 320 0 0 240 0
240 -80 0 -80 0 0 160 0 160 -160 0 -160 0 0 -160z"/>
<path d="M960 1600 l0 -160 -160 0 -160 0 0 -80 0 -80 160 0 160 0 0 -80 0
-80 80 0 80 0 0 -80 0 -80 80 0 80 0 0 -80 0 -80 160 0 160 0 0 -80 0 -80 160
0 160 0 0 -80 0 -80 720 0 720 0 0 80 0 80 160 0 160 0 0 80 0 80 80 0 80 0 0
80 0 80 80 0 80 0 0 80 0 80 80 0 80 0 0 80 0 80 160 0 160 0 0 80 0 80 -80 0
-80 0 0 80 0 80 -80 0 -80 0 0 80 0 80 -80 0 -80 0 0 -160 0 -160 -160 0 -160
0 0 -80 0 -80 -1040 0 -1040 0 0 80 0 80 -160 0 -160 0 0 80 0 80 -80 0 -80 0
0 80 0 80 -80 0 -80 0 0 -160z m320 -320 l0 -160 -80 0 -80 0 0 160 0 160 80
0 80 0 0 -160z m320 -80 l0 -80 160 0 160 0 0 -160 0 -160 -160 0 -160 0 0 80
0 80 -80 0 -80 0 0 160 0 160 80 0 80 0 0 -80z m2240 -80 l0 -160 -80 0 -80 0
0 160 0 160 80 0 80 0 0 -160z m-1440 -240 l0 -240 -160 0 -160 0 0 240 0 240
160 0 160 0 0 -240z m640 0 l0 -240 -240 0 -240 0 0 240 0 240 240 0 240 0 0
-240z m480 80 l0 -160 -80 0 -80 0 0 -80 0 -80 -80 0 -80 0 0 240 0 240 160 0
160 0 0 -160z"/>
</g>
</svg>
